<svg xmlns="http://www.w3.org/2000/svg" width="16.004" height="16.001" viewBox="0 0 16.004 16.001">
  <g id="Icon_f-remove" data-name="Icon/f-remove" transform="translate(0.002 0.001)">
    <rect id="Box" width="16" height="16" fill="none"/>
    <path id="Subtraction_1" data-name="Subtraction 1" d="M-19421-538a8.008,8.008,0,0,1-8-8,8.011,8.011,0,0,1,8-8,8.011,8.011,0,0,1,8,8A8.008,8.008,0,0,1-19421-538Zm0-6.115h0l1.887,1.886,1.887-1.887-1.887-1.882,1.887-1.887-1.887-1.882-1.887,1.882-1.887-1.882-1.883,1.882,1.887,1.887-1.887,1.882,1.887,1.887,1.883-1.886Z" transform="translate(19429 554)" fill="#e51212"/>
  </g>
</svg>
